HIERARCHY
ROOT Hips
{
	OFFSET 0.000000 0.000000 0.000000
	CHANNELS 6 Xposition Yposition Zposition Zrotation Xrotation Yrotation
	JOINT Spine1
	{
		OFFSET 0.000000 0.000003 -6.386978
		CHANNELS 6 Xposition Yposition Zposition Zrotation Xrotation Yrotation
		JOINT Neck
		{
			OFFSET 0.000000 0.000003 -5.091924
			CHANNELS 6 Xposition Yposition Zposition Zrotation Xrotation Yrotation
			JOINT Head
			{
				OFFSET 0.000000 0.417763 -3.237664
				CHANNELS 6 Xposition Yposition Zposition Zrotation Xrotation Yrotation
				End Site
				{
					OFFSET 0.000000 0.000003 -4.177618
				}
			}
		}
		JOINT LeftShoulder
		{
			OFFSET 0.841264 -0.110427 -4.111457
			CHANNELS 6 Xposition Yposition Zposition Zrotation Xrotation Yrotation
			JOINT LeftArm
			{
				OFFSET 3.001868 0.000000 0.000000
				CHANNELS 6 Xposition Yposition Zposition Zrotation Xrotation Yrotation
				JOINT LeftForeArm
				{
					OFFSET 5.886182 0.000000 0.000000
					CHANNELS 6 Xposition Yposition Zposition Zrotation Xrotation Yrotation
					JOINT LeftHand
					{
						OFFSET 5.470435 0.000000 0.000000
						CHANNELS 6 Xposition Yposition Zposition Zrotation Xrotation Yrotation
						End Site
						{
							OFFSET 3.133214 0.000000 0.000000
						}
					}
				}
			}
		}
		JOINT RightShoulder
		{
			OFFSET -0.829658 -0.110427 -4.111457
			CHANNELS 6 Xposition Yposition Zposition Zrotation Xrotation Yrotation
			JOINT RightArm
			{
				OFFSET -3.001868 0.000000 0.000000
				CHANNELS 6 Xposition Yposition Zposition Zrotation Xrotation Yrotation
				JOINT RightForeArm
				{
					OFFSET -5.886182 0.000000 0.000000
					CHANNELS 6 Xposition Yposition Zposition Zrotation Xrotation Yrotation
					JOINT RightHand
					{
						OFFSET -5.470438 0.000000 0.000000
						CHANNELS 6 Xposition Yposition Zposition Zrotation Xrotation Yrotation
						End Site
						{
							OFFSET -3.133214 0.000000 0.000000
						}
					}
				}
			}
		}
	}
	JOINT LeftUpLeg
	{
		OFFSET 2.088814 0.000000 0.000000
		CHANNELS 6 Xposition Yposition Zposition Zrotation Xrotation Yrotation
		JOINT LeftLeg
		{
			OFFSET 0.000000 -0.000004 8.784826
			CHANNELS 6 Xposition Yposition Zposition Zrotation Xrotation Yrotation
			JOINT LeftFoot
			{
				OFFSET 0.000000 -0.000004 9.209890
				CHANNELS 6 Xposition Yposition Zposition Zrotation Xrotation Yrotation
				JOINT LeftToeBase
				{
					OFFSET 0.000000 3.133221 1.357730
					CHANNELS 6 Xposition Yposition Zposition Zrotation Xrotation Yrotation
					End Site
					{
						OFFSET 0.000000 0.835523 0.000000
					}
				}
			}
		}
	}
	JOINT RightUpLeg
	{
		OFFSET -2.088814 0.000000 0.000000
		CHANNELS 6 Xposition Yposition Zposition Zrotation Xrotation Yrotation
		JOINT RightLeg
		{
			OFFSET 0.000000 -0.000004 8.784826
			CHANNELS 6 Xposition Yposition Zposition Zrotation Xrotation Yrotation
			JOINT RightFoot
			{
				OFFSET 0.000000 -0.000004 9.209890
				CHANNELS 6 Xposition Yposition Zposition Zrotation Xrotation Yrotation
				JOINT RightToeBase
				{
					OFFSET 0.000000 3.133221 1.357730
					CHANNELS 6 Xposition Yposition Zposition Zrotation Xrotation Yrotation
					End Site
					{
						OFFSET 0.000000 0.835523 0.000000
					}
				}
			}
		}
	}
}
MOTION
Frames: 6
Frame Time: 0.016667
-1.648035 3.016399 -16.520836 0.621538 16.850734 1.078027 0.000000 0.000007 -6.386976 4.371895 -14.000903 4.844055 -0.000000 0.000004 -5.091922 -4.063626 5.328001 3.195301 -0.000000 0.417763 -3.237664 -4.935535 2.391737 -4.583143 0.841263 -0.110427 -4.111458 -0.170643 -6.841333 22.066436 3.001870 0.000002 -0.000009 8.387610 -10.447515 -8.610926 5.886182 -0.000001 0.000002 -0.194239 -9.993141 -0.424081 5.470431 0.000002 0.000003 -16.999806 -10.040679 0.318159 -0.829658 -0.110427 -4.111455 7.495221 -1.451188 -16.518905 -3.001868 0.000000 -0.000008 -18.861865 13.143910 11.274886 -5.886180 0.000000 0.000002 -84.554067 42.759132 -40.149717 -5.470439 -0.000002 -0.000002 -1.952964 8.378063 -34.217612 2.088814 0.000001 0.000001 -14.667821 -39.133442 22.176429 -0.000003 -0.000003 8.784825 -11.146834 41.459259 -10.327489 -0.000003 -0.000004 9.209892 -18.556043 -4.029681 -7.018720 0.000000 3.133218 1.357729 0.000000 -0.000003 0.000003 -2.088814 0.000000 -0.000002 -9.911446 -28.436069 -38.864292 0.000001 -0.000003 8.784827 14.174118 40.462058 27.241742 0.000003 -0.000006 9.209891 26.011939 -13.584497 12.911096 0.000001 3.133221 1.357730 -0.000003 -0.000001 -0.000001 
-1.648233 3.016516 -16.519892 0.616782 16.852522 1.075625 -0.000000 0.000003 -6.386978 4.372861 -13.997414 4.838637 0.000000 0.000004 -5.091928 -4.068101 5.334946 3.195167 -0.000000 0.417765 -3.237664 -4.938375 2.373749 -4.564615 0.841263 -0.110427 -4.111461 -0.170664 -6.836305 22.072082 3.001868 0.000001 -0.000003 8.382035 -10.428522 -8.624453 5.886182 -0.000001 -0.000005 -0.178246 -10.004590 -0.413866 5.470435 0.000003 -0.000004 -17.011942 -10.049039 0.297481 -0.829657 -0.110424 -4.111453 7.493944 -1.457596 -16.515020 -3.001868 0.000000 -0.000000 -18.853824 13.079337 11.284480 -5.886183 0.000001 0.000005 -84.628482 42.743983 -40.057417 -5.470436 0.000001 -0.000001 -1.968218 8.412272 -34.193119 2.088814 0.000000 -0.000002 -14.654873 -39.139552 22.181265 0.000000 -0.000004 8.784826 -11.143402 41.469015 -10.320568 0.000000 -0.000003 9.209891 -18.553548 -4.043217 -7.042880 0.000000 3.133218 1.357730 0.000003 -0.000001 0.000004 -2.088814 0.000000 0.000000 -9.867393 -28.468657 -38.838126 -0.000000 -0.000004 8.784827 14.139117 40.473099 27.222132 0.000002 -0.000007 9.209892 25.987594 -13.604810 12.909077 -0.000000 3.133220 1.357730 -0.000002 0.000002 0.000000 
-1.648810 3.015992 -16.519691 0.618044 16.856581 1.069768 -0.000000 0.000004 -6.386975 4.377167 -13.995560 4.844126 -0.000000 0.000003 -5.091930 -4.070790 5.373141 3.125468 -0.000000 0.417763 -3.237663 -4.922896 2.289234 -4.441460 0.841263 -0.110427 -4.111464 -0.162174 -6.840498 22.068085 3.001870 -0.000000 -0.000007 8.366203 -10.368590 -8.647928 5.886184 -0.000002 -0.000009 -0.146817 -10.065312 -0.390987 5.470431 -0.000003 0.000010 -17.003192 -10.116033 0.341316 -0.829658 -0.110427 -4.111456 7.478194 -1.469866 -16.544265 -3.001868 0.000002 -0.000002 -18.846111 13.030486 11.335524 -5.886182 0.000003 0.000004 -84.684141 42.739636 -39.986724 -5.470437 0.000001 0.000003 -1.962367 8.444449 -34.195875 2.088814 0.000000 0.000003 -14.643118 -39.148189 22.192056 0.000001 -0.000004 8.784823 -11.161813 41.474196 -10.308938 -0.000003 -0.000004 9.209894 -18.545874 -4.056107 -7.072224 -0.000000 3.133219 1.357730 0.000000 -0.000003 -0.000001 -2.088814 0.000001 0.000004 -9.896136 -28.452753 -38.856413 -0.000000 -0.000004 8.784827 14.151886 40.468594 27.259707 0.000002 -0.000004 9.209892 26.010793 -13.609586 12.860597 -0.000000 3.133217 1.357729 0.000003 -0.000007 0.000002 
-1.649960 3.015651 -16.519428 0.611831 16.858649 1.063542 0.000000 0.000004 -6.386973 4.389355 -13.996173 4.852170 -0.000000 0.000004 -5.091924 -4.075095 5.387781 3.113971 -0.000000 0.417767 -3.237666 -4.923970 2.273817 -4.420843 0.841263 -0.110427 -4.111460 -0.163975 -6.837438 22.063377 3.001870 -0.000000 -0.000001 8.372313 -10.325597 -8.664828 5.886183 -0.000000 0.000000 -0.139439 -10.103482 -0.378490 5.470437 0.000000 0.000001 -17.022314 -10.155688 0.351354 -0.829658 -0.110427 -4.111461 7.484654 -1.457109 -16.528462 -3.001869 0.000001 -0.000003 -18.853615 13.031209 11.312936 -5.886180 -0.000000 0.000001 -84.647818 42.736050 -40.022737 -5.470439 0.000001 0.000001 -1.967240 8.426692 -34.188932 2.088814 0.000000 0.000003 -14.617397 -39.153691 22.211722 0.000000 -0.000004 8.784824 -11.161951 41.477659 -10.311396 0.000000 -0.000004 9.209890 -18.558406 -4.041736 -7.027521 -0.000000 3.133221 1.357729 0.000010 -0.000002 0.000002 -2.088814 0.000000 0.000003 -9.875442 -28.458063 -38.846363 0.000001 -0.000005 8.784828 14.151521 40.466439 27.277078 0.000003 -0.000006 9.209894 26.020485 -13.609610 12.896872 -0.000000 3.133220 1.357730 -0.000003 -0.000001 0.000001 
-1.650604 3.015428 -16.519060 0.610828 16.865040 1.056290 -0.000000 0.000004 -6.386974 4.402850 -14.002563 4.866027 -0.000001 0.000004 -5.091919 -4.071544 5.367131 3.181207 -0.000000 0.417763 -3.237664 -4.939030 2.343548 -4.552133 0.841263 -0.110426 -4.111458 -0.150641 -6.844646 22.052437 3.001867 0.000000 0.000003 8.357588 -10.295879 -8.676674 5.886184 0.000000 0.000005 -0.130960 -10.130748 -0.371530 5.470429 -0.000000 -0.000003 -17.027918 -10.181291 0.340137 -0.829658 -0.110426 -4.111457 7.458818 -1.475888 -16.557306 -3.001868 0.000000 0.000000 -18.849427 13.067220 11.360252 -5.886179 -0.000000 0.000000 -84.605266 42.748426 -40.070336 -5.470442 -0.000007 -0.000004 -1.967872 8.420391 -34.174732 2.088814 0.000000 0.000004 -14.592248 -39.164257 22.231310 -0.000002 -0.000001 8.784825 -11.189388 41.489171 -10.294193 -0.000003 -0.000004 9.209890 -18.540502 -4.051608 -7.072418 -0.000000 3.133221 1.357732 0.000003 -0.000001 -0.000000 -2.088814 -0.000002 0.000002 -9.872525 -28.474372 -38.843829 0.000002 -0.000002 8.784823 14.086034 40.467928 27.317174 0.000003 -0.000004 9.209889 26.048397 -13.603177 12.910257 0.000000 3.133221 1.357725 0.000002 -0.000000 -0.000004 
-1.651641 3.015288 -16.518728 0.619741 16.867567 1.043471 -0.000000 0.000004 -6.386976 4.393880 -14.011587 4.867183 -0.000000 0.000001 -5.091926 -4.077697 5.409099 3.110528 -0.000000 0.417764 -3.237667 -4.922627 2.278923 -4.395404 0.841263 -0.110427 -4.111465 -0.140288 -6.852056 22.054864 3.001870 0.000000 -0.000005 8.353899 -10.319709 -8.687488 5.886181 0.000002 0.000004 -0.135888 -10.127446 -0.372665 5.470438 0.000001 0.000001 -17.055718 -10.180375 0.355604 -0.829658 -0.110427 -4.111464 7.461545 -1.458284 -16.525016 -3.001869 0.000000 -0.000002 -18.852555 13.084412 11.332751 -5.886179 0.000000 0.000002 -84.549484 42.751599 -40.124056 -5.470439 -0.000007 0.000001 -1.976290 8.407390 -34.190520 2.088814 0.000000 -0.000000 -14.577442 -39.167488 22.257807 0.000000 -0.000006 8.784824 -11.159070 41.491408 -10.317424 0.000001 -0.000004 9.209890 -18.562407 -4.053649 -7.083101 -0.000000 3.133220 1.357728 0.000001 0.000003 0.000001 -2.088814 0.000000 -0.000000 -9.889742 -28.463791 -38.833987 -0.000002 -0.000003 8.784828 14.108572 40.456040 27.317003 0.000002 -0.000004 9.209888 26.056436 -13.609002 12.907507 0.000002 3.133219 1.357732 -0.000003 -0.000000 0.000000 
